<?xml version="1.0" encoding="UTF-8" standalone="no"?>
<!-- Created with Inkscape (http://www.inkscape.org/) -->

<svg
   xmlns:osb="http://www.openswatchbook.org/uri/2009/osb"
   xmlns:dc="http://purl.org/dc/elements/1.1/"
   xmlns:cc="http://creativecommons.org/ns#"
   xmlns:rdf="http://www.w3.org/1999/02/22-rdf-syntax-ns#"
   xmlns:svg="http://www.w3.org/2000/svg"
   xmlns="http://www.w3.org/2000/svg"
   xmlns:sodipodi="http://sodipodi.sourceforge.net/DTD/sodipodi-0.dtd"
   xmlns:inkscape="http://www.inkscape.org/namespaces/inkscape"
   width="131.71875"
   height="131.71875"
   id="svg3005"
   version="1.1"
   inkscape:version="0.91 r13725"
   sodipodi:docname="Cone.svg">
  <defs
     id="defs3007">
    <linearGradient
       id="linearGradient3766">
      <stop
         style="stop-color:#880045;stop-opacity:1;"
         offset="0"
         id="stop3768" />
      <stop
         style="stop-color:#ff0986;stop-opacity:1;"
         offset="1"
         id="stop3770" />
    </linearGradient>
    <marker
       inkscape:stockid="Arrow1Lstart"
       orient="auto"
       refY="0.0"
       refX="0.0"
       id="Arrow1Lstart"
       style="overflow:visible">
      <path
         id="path3822"
         d="M 0.0,0.0 L 5.0,-5.0 L -12.5,0.0 L 5.0,5.0 L 0.0,0.0 z "
         style="fill-rule:evenodd;stroke:#000000;stroke-width:1.0pt;marker-start:none"
         transform="scale(0.8) translate(12.5,0)" />
    </marker>
    <linearGradient
       id="linearGradient3797"
       osb:paint="solid">
      <stop
         style="stop-color:#000000;stop-opacity:1;"
         offset="0"
         id="stop3799" />
    </linearGradient>
  </defs>
  <sodipodi:namedview
     id="base"
     pagecolor="#ffffff"
     bordercolor="#666666"
     borderopacity="1.0"
     inkscape:pageopacity="0.0"
     inkscape:pageshadow="2"
     inkscape:zoom="5.6"
     inkscape:cx="76.935556"
     inkscape:cy="68.404948"
     inkscape:document-units="px"
     inkscape:current-layer="layer1"
     showgrid="false"
     inkscape:window-width="1920"
     inkscape:window-height="1027"
     inkscape:window-x="0"
     inkscape:window-y="0"
     inkscape:window-maximized="1"
     fit-margin-top="0"
     fit-margin-left="0"
     fit-margin-right="0"
     fit-margin-bottom="0"
     inkscape:snap-global="false" />
  <metadata
     id="metadata3010">
    <rdf:RDF>
      <cc:Work
         rdf:about="">
        <dc:format>image/svg+xml</dc:format>
        <dc:type
           rdf:resource="http://purl.org/dc/dcmitype/StillImage" />
        <dc:title></dc:title>
      </cc:Work>
    </rdf:RDF>
  </metadata>
  <g
     inkscape:label="Calque 1"
     inkscape:groupmode="layer"
     id="layer1"
     transform="translate(-250.1875,-121.9375)">
    <g
       id="g7201"
       transform="matrix(0.19531212,0,0,0.19531212,484.19619,175.35738)" />
    <g
       id="g7203"
       transform="matrix(0.19531212,0,0,0.19531212,484.19619,175.35738)" />
    <g
       id="g7205"
       transform="matrix(0.19531212,0,0,0.19531212,484.19619,175.35738)" />
    <g
       id="g7207"
       transform="matrix(0.19531212,0,0,0.19531212,484.19619,175.35738)" />
    <g
       id="g7209"
       transform="matrix(0.19531212,0,0,0.19531212,484.19619,175.35738)" />
    <g
       id="g7211"
       transform="matrix(0.19531212,0,0,0.19531212,484.19619,175.35738)" />
    <g
       id="g7213"
       transform="matrix(0.19531212,0,0,0.19531212,484.19619,175.35738)" />
    <g
       id="g7215"
       transform="matrix(0.19531212,0,0,0.19531212,484.19619,175.35738)" />
    <g
       id="g7217"
       transform="matrix(0.19531212,0,0,0.19531212,484.19619,175.35738)" />
    <g
       id="g7219"
       transform="matrix(0.19531212,0,0,0.19531212,484.19619,175.35738)" />
    <g
       id="g7221"
       transform="matrix(0.19531212,0,0,0.19531212,484.19619,175.35738)" />
    <g
       id="g7223"
       transform="matrix(0.19531212,0,0,0.19531212,484.19619,175.35738)" />
    <g
       id="g7225"
       transform="matrix(0.19531212,0,0,0.19531212,484.19619,175.35738)" />
    <g
       id="g7227"
       transform="matrix(0.19531212,0,0,0.19531212,484.19619,175.35738)" />
    <g
       id="g7229"
       transform="matrix(0.19531212,0,0,0.19531212,484.19619,175.35738)" />
    <path
       inkscape:connector-curvature="0"
       style="fill:#00d7df;fill-opacity:1"
       d="m 270.37201,157.4324 46.14179,79.9789 46.14179,-79.9789 c -6.19172,5.22382 -24.5062,9.01115 -46.14179,9.01115 -21.63558,0 -39.95007,-3.78733 -46.14179,-9.01115 z m 0,0"
       id="path7440" />
    <path
       inkscape:connector-curvature="0"
       style="fill:#00ddc2"
       d="m 316.5138,140.6371 c -26.72394,0 -48.38709,5.77747 -48.38709,12.90323 l 2.2453,3.89207 c 6.19172,5.22382 24.50621,9.01115 46.14179,9.01115 21.63559,0 39.95007,-3.78733 46.14179,-9.01115 l 2.24531,-3.89207 c 0,-7.12576 -21.66315,-12.90323 -48.3871,-12.90323 z m 0,0"
       id="path7442" />
    <path
       inkscape:connector-curvature="0"
       style="fill:#acabb1"
       d="m 364.9009,153.54033 -2.24531,3.89207 c 1.2908,-0.89859 2.11379,-2.32485 2.24531,-3.89207 z m 0,0"
       id="path7444" />
    <path
       inkscape:connector-curvature="0"
       style="fill:#acabb1"
       d="m 270.37201,157.4324 -2.2453,-3.89207 c 0.13152,1.56722 0.95451,2.99348 2.2453,3.89207 z m 0,0"
       id="path7446" />
    <path
       inkscape:connector-curvature="0"
       style="fill:#006c70;fill-opacity:1"
       d="m 316.5138,139.0242 c -24.24158,0 -50,5.08049 -50,14.51613 -8e-4,0.14097 0.0158,0.28194 0.048,0.41976 0.21422,1.74206 1.10651,3.33055 2.48394,4.41895 l 46.06461,79.83871 c 0.29139,0.4993 0.82535,0.80645 1.40341,0.80645 0.57807,0 1.11202,-0.30715 1.40342,-0.80645 l 46.06461,-79.83871 c 1.37742,-1.0884 2.26972,-2.67689 2.48393,-4.41895 0.0323,-0.13782 0.0488,-0.27879 0.048,-0.41976 0,-9.43564 -25.75841,-14.51613 -50,-14.51613 z m 0,3.22581 c 28.24235,0 45.85513,6.24212 46.74191,10.91938 0.0181,0.12286 0.0291,0.24651 0.0323,0.37094 -0.17563,1.17581 -0.86788,2.21065 -1.88698,2.82258 -5.27422,4.14488 -21.40325,8.46774 -44.88722,8.46774 -23.48396,0 -39.613,-4.32286 -44.88722,-8.46774 -1.01909,-0.61193 -1.71135,-1.64677 -1.88697,-2.82258 0.003,-0.12443 0.0142,-0.24808 0.0323,-0.37094 0.88678,-4.67726 18.50035,-10.91938 46.7419,-10.91938 z m 0,91.93548 -41.75828,-72.38691 c 9.54826,4.09684 25.9679,6.25788 41.75828,6.25788 15.79039,0 32.21003,-2.16104 41.75829,-6.25788 z m 0,0"
       id="path7448" />
  </g>
</svg>
