<?xml version="1.0" encoding="UTF-8" standalone="no"?>
<!-- Created with Inkscape (http://www.inkscape.org/) -->

<svg
   xmlns:osb="http://www.openswatchbook.org/uri/2009/osb"
   xmlns:dc="http://purl.org/dc/elements/1.1/"
   xmlns:cc="http://creativecommons.org/ns#"
   xmlns:rdf="http://www.w3.org/1999/02/22-rdf-syntax-ns#"
   xmlns:svg="http://www.w3.org/2000/svg"
   xmlns="http://www.w3.org/2000/svg"
   xmlns:sodipodi="http://sodipodi.sourceforge.net/DTD/sodipodi-0.dtd"
   xmlns:inkscape="http://www.inkscape.org/namespaces/inkscape"
   width="131.71875"
   height="131.71875"
   id="svg3005"
   version="1.1"
   inkscape:version="0.91 r13725"
   sodipodi:docname="Pyramid.svg">
  <defs
     id="defs3007">
    <linearGradient
       id="linearGradient3766">
      <stop
         style="stop-color:#880045;stop-opacity:1;"
         offset="0"
         id="stop3768" />
      <stop
         style="stop-color:#ff0986;stop-opacity:1;"
         offset="1"
         id="stop3770" />
    </linearGradient>
    <marker
       inkscape:stockid="Arrow1Lstart"
       orient="auto"
       refY="0.0"
       refX="0.0"
       id="Arrow1Lstart"
       style="overflow:visible">
      <path
         id="path3822"
         d="M 0.0,0.0 L 5.0,-5.0 L -12.5,0.0 L 5.0,5.0 L 0.0,0.0 z "
         style="fill-rule:evenodd;stroke:#000000;stroke-width:1.0pt;marker-start:none"
         transform="scale(0.8) translate(12.5,0)" />
    </marker>
    <linearGradient
       id="linearGradient3797"
       osb:paint="solid">
      <stop
         style="stop-color:#000000;stop-opacity:1;"
         offset="0"
         id="stop3799" />
    </linearGradient>
  </defs>
  <sodipodi:namedview
     id="base"
     pagecolor="#ffffff"
     bordercolor="#666666"
     borderopacity="1.0"
     inkscape:pageopacity="0.0"
     inkscape:pageshadow="2"
     inkscape:zoom="5.6"
     inkscape:cx="17.830471"
     inkscape:cy="71.674178"
     inkscape:document-units="px"
     inkscape:current-layer="layer1"
     showgrid="false"
     inkscape:window-width="1920"
     inkscape:window-height="1027"
     inkscape:window-x="0"
     inkscape:window-y="0"
     inkscape:window-maximized="1"
     fit-margin-top="0"
     fit-margin-left="0"
     fit-margin-right="0"
     fit-margin-bottom="0"
     inkscape:snap-global="false" />
  <metadata
     id="metadata3010">
    <rdf:RDF>
      <cc:Work
         rdf:about="">
        <dc:format>image/svg+xml</dc:format>
        <dc:type
           rdf:resource="http://purl.org/dc/dcmitype/StillImage" />
        <dc:title></dc:title>
      </cc:Work>
    </rdf:RDF>
  </metadata>
  <g
     inkscape:label="Calque 1"
     inkscape:groupmode="layer"
     id="layer1"
     transform="translate(-250.1875,-121.9375)">
    <path
       style="fill:#00d7df;stroke-width:2;stroke-miterlimit:4;stroke-dasharray:none;stroke:#006c70;stroke-opacity:1"
       d="m 365.39326,217.12459 -45.05538,-78.56391 c -0.58183,-1.01464 -1.67011,-1.64511 -2.83964,-1.64511 -1.16953,0 -2.25781,0.63047 -2.83964,1.64511 l -45.05538,78.56391 c -0.48887,0.85215 -0.56875,1.88066 -0.21758,2.79844 0.35117,0.91777 1.09726,1.63007 2.03027,1.93827 l 45.05538,14.88962 c 0.66406,0.21953 1.39023,0.21953 2.05429,0 l 45.05538,-14.88962 c 0.93281,-0.3084 1.6791,-1.0207 2.03027,-1.93827 0.35098,-0.91758 0.2709,-1.94609 -0.21797,-2.79844 z"
       id="path7193"
       inkscape:connector-curvature="0" />
    <path
       style="fill:#00b6bd;stroke-width:2;stroke-miterlimit:4;stroke-dasharray:none"
       d="m 318.5102,235.72752 44.38947,-14.58315 c 0.91904,-0.30204 1.65429,-0.99968 2.00027,-1.89837 0.34599,-0.8987 0.26709,-1.90623 -0.21436,-2.74084 l -44.38947,-76.94699 c -0.57343,-0.99357 -1.64563,-1.61106 -2.79787,-1.61106 l 0,97.94148 c 0.34251,0 0.68484,-0.0536 1.01196,-0.16107 z"
       id="path7195"
       inkscape:connector-curvature="0" />
    <path
       style="fill:#00f6ff"
       d="m 362.71485,215.58204 -22.03396,-7.11585 -22.03357,-7.11569 c -0.32493,-0.10491 -0.66459,-0.15719 -1.00462,-0.15719 -0.34004,0 -0.67989,0.0523 -1.00463,0.15719 l -22.03394,7.11569 -22.03377,7.11585 c -0.65658,0.21186 -1.20579,0.61679 -1.59091,1.13763 -0.38511,0.52085 -0.60614,1.15742 -0.60614,1.833 0,0.6756 0.22122,1.31216 0.60614,1.83302 0.38512,0.52084 0.9345,0.92574 1.59091,1.13762 l 22.03395,7.11587 22.03395,7.11586 c 0.32493,0.10492 0.66459,0.15719 1.00462,0.15719 0.34004,0 0.67987,-0.0523 1.00463,-0.15719 l 22.03395,-7.11586 22.03396,-7.11587 c 0.65638,-0.21188 1.20578,-0.61678 1.59091,-1.13762 0.3851,-0.52086 0.60613,-1.15742 0.60613,-1.83302 0,-0.67558 -0.22123,-1.31236 -0.60613,-1.833 -0.3857,-0.52084 -0.9351,-0.92577 -1.59148,-1.13763 z"
       id="path7197"
       inkscape:connector-curvature="0" />
    <path
       style="fill:#00d7df"
       d="m 318.50785,235.85823 22.14367,-7.1497 22.14365,-7.14968 c 0.65964,-0.2129 1.21178,-0.61973 1.59881,-1.14303 0.38704,-0.52334 0.60916,-1.16294 0.60916,-1.84174 0,-0.67882 -0.22231,-1.31861 -0.60916,-1.84174 -0.38703,-0.5233 -0.93917,-0.93013 -1.59881,-1.14304 l -22.14365,-7.1497 -22.14367,-7.14952 c -0.32655,-0.1054 -0.66789,-0.15792 -1.00961,-0.15792 l 0,34.88401 c 0.34172,0 0.68325,-0.0525 1.00961,-0.15794 z"
       id="path7199"
       inkscape:connector-curvature="0" />
    <g
       id="g7201"
       transform="matrix(0.19531212,0,0,0.19531212,267.49834,136.91557)" />
    <g
       id="g7203"
       transform="matrix(0.19531212,0,0,0.19531212,267.49834,136.91557)" />
    <g
       id="g7205"
       transform="matrix(0.19531212,0,0,0.19531212,267.49834,136.91557)" />
    <g
       id="g7207"
       transform="matrix(0.19531212,0,0,0.19531212,267.49834,136.91557)" />
    <g
       id="g7209"
       transform="matrix(0.19531212,0,0,0.19531212,267.49834,136.91557)" />
    <g
       id="g7211"
       transform="matrix(0.19531212,0,0,0.19531212,267.49834,136.91557)" />
    <g
       id="g7213"
       transform="matrix(0.19531212,0,0,0.19531212,267.49834,136.91557)" />
    <g
       id="g7215"
       transform="matrix(0.19531212,0,0,0.19531212,267.49834,136.91557)" />
    <g
       id="g7217"
       transform="matrix(0.19531212,0,0,0.19531212,267.49834,136.91557)" />
    <g
       id="g7219"
       transform="matrix(0.19531212,0,0,0.19531212,267.49834,136.91557)" />
    <g
       id="g7221"
       transform="matrix(0.19531212,0,0,0.19531212,267.49834,136.91557)" />
    <g
       id="g7223"
       transform="matrix(0.19531212,0,0,0.19531212,267.49834,136.91557)" />
    <g
       id="g7225"
       transform="matrix(0.19531212,0,0,0.19531212,267.49834,136.91557)" />
    <g
       id="g7227"
       transform="matrix(0.19531212,0,0,0.19531212,267.49834,136.91557)" />
    <g
       id="g7229"
       transform="matrix(0.19531212,0,0,0.19531212,267.49834,136.91557)" />
  </g>
</svg>
