<?xml version="1.0" encoding="UTF-8" standalone="no"?>
<!-- Created with Inkscape (http://www.inkscape.org/) -->

<svg
   xmlns:osb="http://www.openswatchbook.org/uri/2009/osb"
   xmlns:dc="http://purl.org/dc/elements/1.1/"
   xmlns:cc="http://creativecommons.org/ns#"
   xmlns:rdf="http://www.w3.org/1999/02/22-rdf-syntax-ns#"
   xmlns:svg="http://www.w3.org/2000/svg"
   xmlns="http://www.w3.org/2000/svg"
   xmlns:sodipodi="http://sodipodi.sourceforge.net/DTD/sodipodi-0.dtd"
   xmlns:inkscape="http://www.inkscape.org/namespaces/inkscape"
   width="131.71875"
   height="131.71875"
   id="svg3005"
   version="1.1"
   inkscape:version="0.91 r13725"
   sodipodi:docname="Sphere.svg">
  <defs
     id="defs3007">
    <linearGradient
       id="linearGradient3766">
      <stop
         style="stop-color:#880045;stop-opacity:1;"
         offset="0"
         id="stop3768" />
      <stop
         style="stop-color:#ff0986;stop-opacity:1;"
         offset="1"
         id="stop3770" />
    </linearGradient>
    <marker
       inkscape:stockid="Arrow1Lstart"
       orient="auto"
       refY="0.0"
       refX="0.0"
       id="Arrow1Lstart"
       style="overflow:visible">
      <path
         id="path3822"
         d="M 0.0,0.0 L 5.0,-5.0 L -12.5,0.0 L 5.0,5.0 L 0.0,0.0 z "
         style="fill-rule:evenodd;stroke:#000000;stroke-width:1.0pt;marker-start:none"
         transform="scale(0.8) translate(12.5,0)" />
    </marker>
    <linearGradient
       id="linearGradient3797"
       osb:paint="solid">
      <stop
         style="stop-color:#000000;stop-opacity:1;"
         offset="0"
         id="stop3799" />
    </linearGradient>
  </defs>
  <sodipodi:namedview
     id="base"
     pagecolor="#ffffff"
     bordercolor="#666666"
     borderopacity="1.0"
     inkscape:pageopacity="0.0"
     inkscape:pageshadow="2"
     inkscape:zoom="3.959798"
     inkscape:cx="94.06251"
     inkscape:cy="58.587249"
     inkscape:document-units="px"
     inkscape:current-layer="layer1"
     showgrid="false"
     inkscape:window-width="1920"
     inkscape:window-height="1027"
     inkscape:window-x="0"
     inkscape:window-y="0"
     inkscape:window-maximized="1"
     fit-margin-top="0"
     fit-margin-left="0"
     fit-margin-right="0"
     fit-margin-bottom="0"
     inkscape:snap-global="false" />
  <metadata
     id="metadata3010">
    <rdf:RDF>
      <cc:Work
         rdf:about="">
        <dc:format>image/svg+xml</dc:format>
        <dc:type
           rdf:resource="http://purl.org/dc/dcmitype/StillImage" />
        <dc:title></dc:title>
      </cc:Work>
    </rdf:RDF>
  </metadata>
  <g
     inkscape:label="Calque 1"
     inkscape:groupmode="layer"
     id="layer1"
     transform="translate(-250.1875,-121.9375)">
    <path
       style="fill:#00d7df;stroke:#006c70;stroke-width:2;stroke-miterlimit:4;stroke-dasharray:none;stroke-opacity:1"
       d="m 366.56284,187.3357 c 0,-27.39272 -22.26283,-49.802 -49.79921,-49.802 -0.002,0 -0.004,0 -0.006,0 -7.7e-4,0 -0.002,0 -0.004,0 -27.38988,0 -49.80194,22.26045 -49.80194,49.79909 0,0.002 0,0.004 0,0.006 0,0.002 0,0.002 0,0.004 0,27.38884 22.25953,49.80181 49.79922,49.80181 0.002,0 0.004,0 0.006,0 0.002,0 0.002,0 0.004,0 27.39163,0 49.80193,-22.26239 49.80193,-49.79928 0,-0.002 0,-0.004 0,-0.006 0,-0.002 0,-0.002 0,-0.003 z"
       id="path6399"
       inkscape:connector-curvature="0" />
    <path
       style="fill:#00b6bd;stroke-width:2;stroke-miterlimit:4;stroke-dasharray:none"
       d="m 316.76084,236.13896 c 26.83607,0 48.79185,-21.82241 48.79185,-48.81506 0,-0.002 0,-0.004 0,-0.006 0,-0.002 0,-0.002 0,-0.003 0,-26.85134 -21.8113,-48.81773 -48.78918,-48.81773 -0.002,0 -0.004,0 -0.006,0 l 0,97.64195 c 0.002,0 0.002,0 0.004,0 z"
       id="path6401"
       inkscape:connector-curvature="0" />
    <path
       style="fill:#00f6ff"
       d="m 365.55269,187.32925 c 0,-15.1426 -23.42623,-25.97346 -48.89858,-25.97542 -24.10737,0.002 -48.89858,10.19823 -48.89858,25.98164 0,0.0101 0,0.005 0,0.0138 0,18.05675 30.17578,25.97365 48.89858,25.97521 24.28064,-0.002 48.89858,-10.28265 48.89858,-25.98184 0,-0.009 0,-0.005 0,-0.0134 z"
       id="path6403"
       inkscape:connector-curvature="0" />
    <path
       style="fill:#00d7df"
       d="m 316.7574,161.35388 0,51.97067 c 24.16664,-0.002 48.66901,-10.28265 48.66901,-25.98183 0,-0.002 0,-0.002 0,-0.004 0,-0.002 0,-0.002 0,-0.003 0,-0.005 -1.7e-4,-0.009 -1.7e-4,-0.0139 -0.008,-15.13852 -23.32007,-25.96611 -48.66884,-25.96807 z"
       id="path6405"
       inkscape:connector-curvature="0" />
    <g
       id="g6407"
       transform="matrix(0.19455251,0,0,0.19455199,266.95196,137.5337)" />
    <g
       id="g6409"
       transform="matrix(0.19455251,0,0,0.19455199,266.95196,137.5337)" />
    <g
       id="g6411"
       transform="matrix(0.19455251,0,0,0.19455199,266.95196,137.5337)" />
    <g
       id="g6413"
       transform="matrix(0.19455251,0,0,0.19455199,266.95196,137.5337)" />
    <g
       id="g6415"
       transform="matrix(0.19455251,0,0,0.19455199,266.95196,137.5337)" />
    <g
       id="g6417"
       transform="matrix(0.19455251,0,0,0.19455199,266.95196,137.5337)" />
    <g
       id="g6419"
       transform="matrix(0.19455251,0,0,0.19455199,266.95196,137.5337)" />
    <g
       id="g6421"
       transform="matrix(0.19455251,0,0,0.19455199,266.95196,137.5337)" />
    <g
       id="g6423"
       transform="matrix(0.19455251,0,0,0.19455199,266.95196,137.5337)" />
    <g
       id="g6425"
       transform="matrix(0.19455251,0,0,0.19455199,266.95196,137.5337)" />
    <g
       id="g6427"
       transform="matrix(0.19455251,0,0,0.19455199,266.95196,137.5337)" />
    <g
       id="g6429"
       transform="matrix(0.19455251,0,0,0.19455199,266.95196,137.5337)" />
    <g
       id="g6431"
       transform="matrix(0.19455251,0,0,0.19455199,266.95196,137.5337)" />
    <g
       id="g6433"
       transform="matrix(0.19455251,0,0,0.19455199,266.95196,137.5337)" />
    <g
       id="g6435"
       transform="matrix(0.19455251,0,0,0.19455199,266.95196,137.5337)" />
  </g>
</svg>
